<svg width="24" height="24" viewBox="0 0 24 24" fill="none" xmlns="http://www.w3.org/2000/svg">
<path d="M14 12.7016H15V13.6787H16V14.6557H17V15.6328H18V16.6098H19V17.5869H20V18.5639H21V19.541H22V20.518H21V21.4951H20V20.518H19V19.541H18V18.5639H17V17.5869H16V16.6098H15V15.6328H14V14.6557H13V13.6787H11V14.6557H10V15.6328H9V16.6098H8V17.5869H7V18.5639H6V19.541H5V20.518H4V21.4951H3V20.518H2V19.541H3V18.5639H4V17.5869H5V16.6098H6V15.6328H7V14.6557H8V13.6787H9V12.7016H10V10.7475H9V9.7705H8V8.79345H7V7.8164H6V6.83935H5V5.8623H4V4.88525H3V3.9082H2V2.93115H3V1.9541H4V2.93115H5V3.9082H6V4.88525H7V5.8623H8V6.83935H9V7.8164H10V8.79345H11V9.7705H13V8.79345H14V7.8164H15V6.83935H16V5.8623H17V4.88525H18V3.9082H19V2.93115H20V1.9541H21V2.93115H22V3.9082H21V4.88525H20V5.8623H19V6.83935H18V7.8164H17V8.79345H16V9.7705H15V10.7475H14V12.7016Z" fill="black"/>
</svg>
