<svg xmlns="http://www.w3.org/2000/svg" viewBox="0 0 512 512" id="Interface-Essential-Refresh--Streamline-Pixel" height="512" width="512">
  <desc>
    Interface Essential Refresh Streamline Icon: https://streamlinehq.com
  </desc>
  <title>interface-essential-refresh</title>
  <g>
    <path d="M438.88 195.04h24.32v121.92h-24.32Z" fill="#000000" stroke-width="16"></path>
    <path d="M414.56 316.96h24.32v48.8h-24.32Z" fill="#000000" stroke-width="16"></path>
    <path d="M414.56 146.24h24.32v48.8h-24.32Z" fill="#000000" stroke-width="16"></path>
    <path d="m438.88 121.92 0 -24.32 24.32 0 0 -24.48 -121.92 0 0 121.92 24.48 0 0 -24.32 24.32 0 0 -24.48 24.48 0 0 -24.32 24.32 0z" fill="#000000" stroke-width="16"></path>
    <path d="M390.08 365.76h24.48v24.32h-24.48Z" fill="#000000" stroke-width="16"></path>
    <path d="M365.76 390.08h24.32v24.48h-24.32Z" fill="#000000" stroke-width="16"></path>
    <path d="M316.96 414.56h48.8v24.32h-48.8Z" fill="#000000" stroke-width="16"></path>
    <path d="M219.36 438.88h97.6v24.32h-97.6Z" fill="#000000" stroke-width="16"></path>
    <path d="M195.04 48.8h97.6v24.32h-97.6Z" fill="#000000" stroke-width="16"></path>
    <path d="M146.24 73.12h48.8V97.6H146.24Z" fill="#000000" stroke-width="16"></path>
    <path d="M121.92 97.6h24.32v24.32H121.92Z" fill="#000000" stroke-width="16"></path>
    <path d="M97.6 121.92h24.32v24.32H97.6Z" fill="#000000" stroke-width="16"></path>
    <path d="m73.12 390.08 0 24.48 -24.32 0 0 24.32 121.92 0 0 -121.92 -24.48 0 0 24.32 -24.32 0 0 24.48 -24.32 0 0 24.32 -24.48 0z" fill="#000000" stroke-width="16"></path>
    <path d="M73.12 316.96H97.6v48.8H73.12Z" fill="#000000" stroke-width="16"></path>
    <path d="M73.12 146.24H97.6v48.8H73.12Z" fill="#000000" stroke-width="16"></path>
    <path d="M48.8 195.04h24.32v121.92H48.8Z" fill="#000000" stroke-width="16"></path>
  </g>
</svg>